<svg xmlns="http://www.w3.org/2000/svg" viewBox="0 0 286.69 286.69"><defs><style>.cls-1{fill:#fff;fill-rule:evenodd;}</style></defs><title>Asset 1</title><g id="Layer_2" data-name="Layer 2"><g id="OBJECTS"><path class="cls-1" d="M108.64,135.05v8.3a35.09,35.09,0,0,0,34.71,34.7h0a34.71,34.71,0,1,0-.07-69.41H108.64v26.41ZM0,143.35V0H65.18V143.35c0,42.85,35.3,78.15,78.17,78.15h0c42.84,0,78.12-35.28,78.12-78.12s-35.31-78.2-78.19-78.2H108.64V0h34.67c78.86,0,143.38,64.52,143.38,143.37h0c0,78.82-64.49,143.31-143.31,143.31h0C64.51,286.69,0,222.18,0,143.35Z"/></g></g></svg>